<svg xmlns="http://www.w3.org/2000/svg" viewBox="0 0 57.01 20.04"><defs><style>.cls-1{fill:#201d1e;}.cls-2{fill:#6592a6;}</style></defs><g id="Layer_2" data-name="Layer 2"><g id="Layer_1-2" data-name="Layer 1"><path class="cls-1" d="M8.56,8.44a.25.25,0,0,1-.08-.17s0-.09,0-.11L11.29.47a.47.47,0,0,1,.48-.35h1.87a.47.47,0,0,1,.48.35l2.8,7.69a.31.31,0,0,1,0,.11.28.28,0,0,1-.25.25H15.12a.43.43,0,0,1-.41-.26l-.43-1.17H11.13L10.7,8.26a.42.42,0,0,1-.41.26H8.73A.25.25,0,0,1,8.56,8.44Zm3.08-3.15h2.13L12.71,2.23Z"/><path class="cls-1" d="M17.8,8.43a.29.29,0,0,1-.09-.21V2.58a.29.29,0,0,1,.09-.22A.32.32,0,0,1,18,2.28H19.4a.33.33,0,0,1,.22.08.33.33,0,0,1,.08.22V3a2.44,2.44,0,0,1,.74-.59,2.21,2.21,0,0,1,1-.24,1.82,1.82,0,0,1,1.81,1,2.2,2.2,0,0,1,.8-.74,2.27,2.27,0,0,1,1.11-.29,2.07,2.07,0,0,1,1.6.67,2.81,2.81,0,0,1,.62,2V8.22a.29.29,0,0,1-.09.21.26.26,0,0,1-.21.09H25.64a.33.33,0,0,1-.22-.08.29.29,0,0,1-.09-.22V4.9a1.15,1.15,0,0,0-.24-.81.86.86,0,0,0-1.23,0,1.15,1.15,0,0,0-.23.81V8.22a.29.29,0,0,1-.09.21.29.29,0,0,1-.22.09H21.85a.33.33,0,0,1-.22-.08.29.29,0,0,1-.09-.22V4.9a1.15,1.15,0,0,0-.24-.81.79.79,0,0,0-.63-.26.77.77,0,0,0-.61.26,1.11,1.11,0,0,0-.24.79V8.22a.32.32,0,0,1-.08.21.29.29,0,0,1-.22.09H18A.29.29,0,0,1,17.8,8.43Z"/><path class="cls-1" d="M29.45,8.39a1.93,1.93,0,0,1-.81-.67,1.65,1.65,0,0,1-.3-1A1.59,1.59,0,0,1,29,5.44a4.18,4.18,0,0,1,1.87-.7l1.48-.23V4.37a1,1,0,0,0-.18-.65.76.76,0,0,0-.61-.2.82.82,0,0,0-.4.08,2.68,2.68,0,0,0-.37.25,1.23,1.23,0,0,1-.27.19q-.06.09-.12.09H29a.26.26,0,0,1-.19-.08.19.19,0,0,1-.07-.19,1.34,1.34,0,0,1,.33-.72A2.35,2.35,0,0,1,30,2.45a3.88,3.88,0,0,1,1.58-.29,3.21,3.21,0,0,1,2.2.65,2.28,2.28,0,0,1,.72,1.77V8.22a.32.32,0,0,1-.08.21.29.29,0,0,1-.22.09H32.76a.31.31,0,0,1-.3-.3V7.8a2,2,0,0,1-.73.61,2.83,2.83,0,0,1-2.28,0Zm2.62-1.51a1.43,1.43,0,0,0,.33-1V5.72l-1,.17c-.67.13-1,.37-1,.72a.53.53,0,0,0,.24.45,1,1,0,0,0,.58.16A1.14,1.14,0,0,0,32.07,6.88Z"/><path class="cls-1" d="M35.93,8.43a.29.29,0,0,1-.09-.21V2.58a.29.29,0,0,1,.09-.22.32.32,0,0,1,.21-.08h1.48a.3.3,0,0,1,.21.08.29.29,0,0,1,.09.22V3a2.23,2.23,0,0,1,.83-.64,2.72,2.72,0,0,1,1.17-.24,2.36,2.36,0,0,1,1.22.31A2.24,2.24,0,0,1,42,3.4a3.29,3.29,0,0,1,.3,1.47V8.22a.28.28,0,0,1-.08.21.29.29,0,0,1-.22.09H40.39a.33.33,0,0,1-.22-.08.29.29,0,0,1-.09-.22V4.94a1.19,1.19,0,0,0-.26-.82.92.92,0,0,0-.75-.29,1,1,0,0,0-.76.29,1.18,1.18,0,0,0-.27.82V8.22a.29.29,0,0,1-.09.21.27.27,0,0,1-.21.09h-1.6A.29.29,0,0,1,35.93,8.43Z"/><path class="cls-1" d="M44.1,7.91a3.2,3.2,0,0,1-.71-2.09V5a3.14,3.14,0,0,1,.72-2.06,2.32,2.32,0,0,1,1.82-.75,2.27,2.27,0,0,1,1.74.7V.3a.29.29,0,0,1,.09-.22A.32.32,0,0,1,48,0h1.55a.33.33,0,0,1,.22.08.29.29,0,0,1,.09.22V8.22a.29.29,0,0,1-.09.22.33.33,0,0,1-.22.08H48.09a.31.31,0,0,1-.3-.3V7.85a2.25,2.25,0,0,1-1.86.79A2.36,2.36,0,0,1,44.1,7.91Zm3.3-1.27a1.47,1.47,0,0,0,.27-.83c0-.23,0-.38,0-.46s0-.23,0-.44a1.27,1.27,0,0,0-.28-.78,1,1,0,0,0-.76-.3.89.89,0,0,0-.78.32,1.73,1.73,0,0,0-.27.88v.74a1.73,1.73,0,0,0,.27.88.89.89,0,0,0,.78.32A.92.92,0,0,0,47.4,6.64Z"/><path class="cls-1" d="M51.93,8.39a2,2,0,0,1-.82-.67,1.64,1.64,0,0,1-.29-1,1.58,1.58,0,0,1,.67-1.33,4.28,4.28,0,0,1,1.87-.7l1.49-.23V4.37a1,1,0,0,0-.18-.65.77.77,0,0,0-.61-.2.86.86,0,0,0-.41.08,2.66,2.66,0,0,0-.36.25A1.54,1.54,0,0,1,53,4a.14.14,0,0,1-.12.09H51.5a.28.28,0,0,1-.2-.08.21.21,0,0,1-.06-.19,1.25,1.25,0,0,1,.32-.72,2.39,2.39,0,0,1,.95-.69,3.83,3.83,0,0,1,1.57-.29,3.24,3.24,0,0,1,2.21.65A2.28,2.28,0,0,1,57,4.58V8.22a.29.29,0,0,1-.09.21.26.26,0,0,1-.21.09H55.23a.31.31,0,0,1-.3-.3V7.8a1.93,1.93,0,0,1-.73.61,2.8,2.8,0,0,1-2.27,0Zm2.61-1.51a1.43,1.43,0,0,0,.33-1V5.72l-1,.17c-.68.13-1,.37-1,.72a.55.55,0,0,0,.23.45,1,1,0,0,0,.58.16A1.12,1.12,0,0,0,54.54,6.88Z"/><path class="cls-1" d="M10,19.21a3.17,3.17,0,0,1-1-2.42c0-.22,0-.57,0-1.06s0-.85,0-1.08A3.14,3.14,0,0,1,10,12.25a4,4,0,0,1,2.68-.85,5.09,5.09,0,0,1,1.92.35,3,3,0,0,1,1.33,1,2.68,2.68,0,0,1,.52,1.56.25.25,0,0,1-.08.18.29.29,0,0,1-.18.07H14.48a.33.33,0,0,1-.24-.07.45.45,0,0,1-.14-.24,1.42,1.42,0,0,0-.51-.83,1.63,1.63,0,0,0-.91-.23c-.9,0-1.37.5-1.4,1.51,0,.22,0,.55,0,1s0,.79,0,1c0,1,.5,1.51,1.4,1.51a1.6,1.6,0,0,0,.91-.24,1.42,1.42,0,0,0,.51-.82.39.39,0,0,1,.13-.24.37.37,0,0,1,.25-.07h1.71a.29.29,0,0,1,.18.07.25.25,0,0,1,.08.18,2.68,2.68,0,0,1-.52,1.56,3,3,0,0,1-1.33,1,5.09,5.09,0,0,1-1.92.35A4,4,0,0,1,10,19.21Z"/><path class="cls-1" d="M18.27,19.79a2,2,0,0,1-.82-.67,1.71,1.71,0,0,1-.29-.95,1.57,1.57,0,0,1,.68-1.33,4.19,4.19,0,0,1,1.86-.7l1.49-.23v-.14a1,1,0,0,0-.18-.65.76.76,0,0,0-.61-.2A.79.79,0,0,0,20,15a2.68,2.68,0,0,0-.37.25,1.26,1.26,0,0,1-.28.19.14.14,0,0,1-.12.09H17.84a.3.3,0,0,1-.2-.08.21.21,0,0,1-.06-.19,1.32,1.32,0,0,1,.32-.72,2.46,2.46,0,0,1,1-.69,3.83,3.83,0,0,1,1.57-.29,3.24,3.24,0,0,1,2.21.65A2.28,2.28,0,0,1,23.35,16v3.64a.32.32,0,0,1-.08.21.29.29,0,0,1-.22.09H21.57a.31.31,0,0,1-.3-.3V19.2a1.93,1.93,0,0,1-.73.61,2.53,2.53,0,0,1-1.11.23A2.6,2.6,0,0,1,18.27,19.79Zm2.61-1.51a1.43,1.43,0,0,0,.33-1v-.15l-1,.17c-.67.13-1,.37-1,.72a.55.55,0,0,0,.23.45,1,1,0,0,0,.59.16A1.12,1.12,0,0,0,20.88,18.28Z"/><path class="cls-1" d="M26.7,19.25v.37a.29.29,0,0,1-.09.21.27.27,0,0,1-.21.09H25a.33.33,0,0,1-.22-.08.29.29,0,0,1-.09-.22V11.7a.29.29,0,0,1,.09-.22A.33.33,0,0,1,25,11.4h1.55a.29.29,0,0,1,.21.08.29.29,0,0,1,.09.22v2.56a2.27,2.27,0,0,1,1.74-.7,2.32,2.32,0,0,1,1.82.75,3.14,3.14,0,0,1,.72,2.06c0,.1,0,.25,0,.43s0,.32,0,.42a3.2,3.2,0,0,1-.71,2.09,2.36,2.36,0,0,1-1.83.73A2.25,2.25,0,0,1,26.7,19.25Zm1.94-1.2a1.73,1.73,0,0,0,.27-.88c0-.08,0-.2,0-.37s0-.29,0-.37a1.73,1.73,0,0,0-.27-.88.89.89,0,0,0-.78-.32.94.94,0,0,0-.76.3,1.27,1.27,0,0,0-.28.78c0,.1,0,.25,0,.44s0,.35,0,.46a1.47,1.47,0,0,0,.27.83.92.92,0,0,0,.77.33A.89.89,0,0,0,28.64,18.05Z"/><path class="cls-1" d="M32.36,19.83a.25.25,0,0,1-.09-.21V14a.29.29,0,0,1,.08-.22.28.28,0,0,1,.22-.09H34a.31.31,0,0,1,.31.31v.46a2.31,2.31,0,0,1,.79-.57,2.48,2.48,0,0,1,1-.2h.54a.28.28,0,0,1,.3.3v1.31a.32.32,0,0,1-.08.21.29.29,0,0,1-.22.09H35.46a1,1,0,0,0-.74.26,1.05,1.05,0,0,0-.26.75v3a.29.29,0,0,1-.09.22.33.33,0,0,1-.22.08H32.57A.27.27,0,0,1,32.36,19.83Z"/><path class="cls-1" d="M38.42,19.79a2,2,0,0,1-.82-.67,1.65,1.65,0,0,1-.3-.95A1.59,1.59,0,0,1,38,16.84a4.23,4.23,0,0,1,1.87-.7l1.49-.23v-.14a1,1,0,0,0-.18-.65.78.78,0,0,0-.62-.2.82.82,0,0,0-.4.08,2.15,2.15,0,0,0-.36.25,1.54,1.54,0,0,1-.28.19.14.14,0,0,1-.12.09H38a.28.28,0,0,1-.2-.08.21.21,0,0,1-.06-.19,1.25,1.25,0,0,1,.32-.72,2.39,2.39,0,0,1,1-.69,3.79,3.79,0,0,1,1.57-.29,3.24,3.24,0,0,1,2.21.65A2.28,2.28,0,0,1,43.5,16v3.64a.29.29,0,0,1-.09.21.27.27,0,0,1-.21.09H41.72a.31.31,0,0,1-.3-.3V19.2a2,2,0,0,1-.73.61,2.8,2.8,0,0,1-2.27,0ZM41,18.28a1.43,1.43,0,0,0,.33-1v-.15l-1,.17c-.67.13-1,.37-1,.72a.55.55,0,0,0,.23.45,1,1,0,0,0,.58.16A1.14,1.14,0,0,0,41,18.28Z"/><path class="cls-1" d="M44.9,19.84a.29.29,0,0,1-.09-.22V11.7a.29.29,0,0,1,.09-.22.33.33,0,0,1,.22-.08h1.5a.29.29,0,0,1,.21.08.29.29,0,0,1,.09.22v7.92a.29.29,0,0,1-.09.21.26.26,0,0,1-.21.09h-1.5A.33.33,0,0,1,44.9,19.84Z"/><rect class="cls-2" width="4.36" height="19.92"/></g></g></svg>