<svg id="Layer_1" data-name="Layer 1" xmlns="http://www.w3.org/2000/svg" viewBox="0 0 283.46 283.46"><defs><style>.cls-1{fill:#a46c9e;}</style></defs><path class="cls-1" d="M90.61,173.6,64.13,172a495.76,495.76,0,0,0-24.38,54.62c-10.78,0-19.22-5.63-19.22-18.76,0-7.73,5.63-21.57,14.3-38h-.94c-3.51-5.15-6.79-12.17-3.75-19,1.4-3.53,8.9-4.92,18.28-4.92,25.79-42.42,60.94-89.06,68-89.06,6.79,0,13.6,2.8,16.88,10.3,7.26,1.41,17.8,6.8,17.8,11,0,7-32.33,93.53-45.93,145.1-9.61.22-21.33-6.82-21.33-18.06C83.81,198.91,86.63,187.44,90.61,173.6ZM96,156.73c10.07-30,23.67-64.92,30.24-81.1-14.31,16.18-32.58,43.13-49.46,73.13A101.38,101.38,0,0,1,93.42,153,9.88,9.88,0,0,1,96,156.73Z"/><path class="cls-1" d="M194.73,224.69c-15.47,0-25.78-8.21-29.53-20.38-10.55-2.58-17.34-10.56-17.34-27,0-44.75,42.65-118.11,89.06-118.11,7,0,14.52,8,16.39,13.11,6.57,2.12,9.62,7,9.62,9.62,0,5.38-12.9,27.88-20.63,45.94-10.3,0-18.05-4.7-18.05-14.77,0-9.83,10.55-27.66,17.35-36.55-37,15-68,75.93-68.43,122.1,16.63,5.15,33.05-9.6,51.33-23.91,3.28,2.82,6.31,5.85,6.31,10.78C230.81,200.8,210,224.69,194.73,224.69Z"/><path class="cls-1" d="M263.93,10.36a9.18,9.18,0,0,1,9.18,9.17v244.4a9.19,9.19,0,0,1-9.18,9.18H19.53a9.18,9.18,0,0,1-9.17-9.18V19.53a9.18,9.18,0,0,1,9.17-9.17h244.4m0-5H19.53A14.17,14.17,0,0,0,5.36,19.53v244.4a14.18,14.18,0,0,0,14.17,14.18h244.4a14.18,14.18,0,0,0,14.18-14.18V19.53A14.17,14.17,0,0,0,263.93,5.36Z"/></svg>